PathFileType	4	(X/Y/Z)	Patient4_TMGait_0pt5_01_right_11.trc.trc
DataRate	CameraRate	NumFrames	NumMarkers	Units	OrigDataRate	OrigDataStartFrame	OrigNumFrames
73.298429319372	73.298429319372	4	33	mm	73.298429319372	106	       141
Frame#	Time	L.ASIS			Sacral			L.Shoulder			Chest			R.Shoulder			Neck			R.ASIS			R.Thigh.Superior			R.Thigh.Lateral			R.Thigh.Inferior			R.Patella			L.Thigh.Superior			L.Thigh.Lateral			L.Thigh.Inferior			L.Patella			L.Shank.Superior			L.Shank.Lateral			L.Shank.Inferior			R.Shank.Superior			R.Shank.Lateral			R.Shank.Inferior			R.Heel			R.Midfoot.Superior			R.Midfoot.Lateral			R.Toe			L.Heel			L.Midfoot.Lateral			L.Midfoot.Superior			L.Toe			L.Elbow			L.Wrist			R.Elbow			R.Wrist			
		X1	Y1	Z1	X2	Y2	Z2	X3	Y3	Z3	X4	Y4	Z4	X5	Y5	Z5	X6	Y6	Z6	X7	Y7	Z7	X8	Y8	Z8	X9	Y9	Z9	X10	Y10	Z10	X11	Y11	Z11	X12	Y12	Z12	X13	Y13	Z13	X14	Y14	Z14	X15	Y15	Z15	X16	Y16	Z16	X17	Y17	Z17	X18	Y18	Z18	X19	Y19	Z19	X20	Y20	Z20	X21	Y21	Z21	X22	Y22	Z22	X23	Y23	Z23	X24	Y24	Z24	X25	Y25	Z25	X26	Y26	Z26	X27	Y27	Z27	X28	Y28	Z28	X29	Y29	Z29	X30	Y30	Z30	X31	Y31	Z31	X32	Y32	Z32	X33	Y33	Z33	

106	15.552500000000	775.296013324267	966.707544872559	286.925586496182	553.159600842755	1008.321370765035	434.871562761327	730.164647915823	1447.367598865103	276.004133977023	823.158865654356	1370.846692339445	440.331646606267	728.196138540813	1434.952422910087	613.962716285753	720.629990801380	1502.602395631446	429.727755279923	775.930430673539	952.758183551462	562.117277023964	862.558704286001	786.686866274379	535.509422236953	827.979624123508	664.761087765352	606.797881469931	918.485885265396	626.298471505028	528.353141402261	941.360849792817	513.727549693028	552.335089528767	810.700120243207	746.596089981225	323.295659248870	714.833721953023	636.534493566296	263.134454327031	786.601926876694	554.226311595838	332.854674267922	779.629196699593	485.268456263154	346.815678110120	753.802228546593	415.070877857532	338.318970602986	666.508458561642	301.954184269699	282.983781575268	704.912736178935	192.054294571018	362.227871971374	869.283554491425	435.594057033547	560.850059178359	751.945972184494	389.413790777783	623.799009645975	743.227763806418	279.332890307744	575.601505912911	545.390909460749	205.106353543320	555.001785289293	719.213330675026	157.162734796172	585.458562578399	610.575464009283	143.440443193937	620.874485243627	792.938797089173	47.634944442232	600.027216462608	568.086473753059	38.120617992483	396.609273938725	648.322674919058	35.191809772917	321.477161992888	730.067628161724	95.625506142270	354.353853425684	859.869565193814	41.548128659243	336.712343847940	779.078423207907	1120.152910411125	107.463066386474	989.259024665293	964.891704615498	81.523842523696	625.763441986932	1094.850193694702	696.623230427471	639.398872886636	833.104219790849	702.947723031413	
107	15.566142857143	775.429974927002	966.374631062911	287.204760936965	553.018472350151	1008.030079666291	434.380783611101	730.733581420393	1447.107676394573	275.472355490416	822.928828373412	1370.772241233327	440.287409775140	727.147154742846	1435.048375561554	613.329798997155	720.575960286827	1502.455228842203	429.103711542185	775.073186318798	952.973770076480	562.355029381566	862.649808109269	788.247718073200	535.518612297725	829.603083360404	666.099078983817	607.057570335107	919.930905431756	628.417849762256	528.159631532291	944.735734768592	517.273198353693	552.342586544281	808.878924559450	745.524733709861	324.037250543689	712.172977584038	636.281286780731	263.058574547807	782.511070201270	553.329706596174	333.264063857227	774.707550793741	484.511358753600	347.221092282002	748.715411820885	414.509445864556	338.549930362944	661.060389392786	301.790498734852	283.009762014142	698.526280430366	191.750460680812	362.430371334040	876.041048254021	437.168128278842	561.255018097425	761.341425700474	385.412512660068	624.378040091632	758.163240441224	274.968899688310	576.379572061763	564.436669289927	190.281541718915	555.633702522302	740.310334740170	152.235532586743	586.837806805173	632.687618279482	133.067420588438	622.374680724450	819.864852438937	47.408163658291	602.848491214891	561.216375483122	38.095122723400	396.606906730983	641.451326886114	35.176217932824	321.486409300764	723.198908513631	95.592737340870	354.415078732263	853.012897996280	41.522577778820	336.736206348586	783.750306606639	1121.172107708571	106.589523849414	999.749611482063	973.972688428122	81.360191661330	615.715259303369	1098.183232417410	693.880217364193	617.127829566356	836.215865517694	700.146293931595	
108	15.579785714286	775.613721636036	965.953168941379	287.625419401697	552.895381967593	1007.724176756261	433.908838684387	731.431691678007	1446.723067257744	275.048120809979	822.802330845067	1370.587974558527	440.362450513186	726.195393473314	1435.109657737856	612.751062835723	720.658079762254	1502.216210566003	428.554084914320	774.204639046400	953.026977941921	562.731536659634	862.276130888524	789.184629945716	535.782957782955	830.252642844364	666.902250541877	607.516955169358	920.344292293229	629.745682119095	528.256067076615	946.873727040705	520.318897643814	552.619643145185	807.067898280773	744.411061160802	324.835340293591	709.560404399493	635.990255439836	263.000239019781	778.462832821597	552.416810290686	333.691649451531	769.862562261657	483.743817836510	347.607705574440	743.669374292723	413.914885495144	338.785939709387	655.631648659337	301.617402159695	283.042461328448	692.142127510705	191.430728105303	362.629518020954	881.961014598199	438.334764268168	561.860285950869	770.488984179681	380.581719881633	625.140103272463	773.411734093157	270.105366867160	577.260350420709	584.885542499369	174.302738638606	556.263918703362	762.326947626477	147.080632359418	588.289607838382	656.147012457253	122.011030968218	623.910720724665	847.901297478626	47.624116474113	605.736758564456	554.358519313809	38.081658736956	396.595581536840	634.580005049659	35.162046383119	321.496592112917	716.327608228388	95.550236307800	354.480421286403	846.157964032613	41.495343220503	336.762626961480	787.988515256427	1121.951574850794	105.940829093203	1009.328680284959	982.760541663322	81.654106502627	606.088881656121	1101.717864173552	691.454697984864	596.693074860606	840.121819685306	697.759734791068	
109	15.593428571429	775.853085910643	965.449637271919	288.185442180548	552.779407491660	1007.422629038415	433.454146660224	732.273551567264	1446.213657950974	274.719196540998	822.786320318754	1370.294547234098	440.552204636145	725.354359077671	1435.146887213585	612.231371316734	720.883699735803	1501.890280923821	428.062934178556	773.333602151122	952.919571009733	563.245465860944	861.426077339164	789.477783091244	536.296237403417	829.895104641415	667.153245692344	608.180533052752	919.711791054920	630.262321812805	528.658398106408	947.771894234477	522.836802446633	553.152114896003	805.272467487993	743.254250538664	325.690124673164	707.002240162305	635.664539820789	262.974389247710	774.467114871647	551.489371940373	334.146736815555	765.105557606317	482.967897340617	347.984775219859	738.674385215782	413.290965524636	339.034565282615	650.229397453865	301.441262699996	283.086460206584	685.773646876859	191.099061520433	362.825792867336	887.000075407553	439.132339470843	562.639696560972	779.379427726820	375.092518203382	626.061067033309	788.856544059540	265.000521396376	578.203493882387	606.685647112048	157.669788414845	556.853757024926	785.049198509359	142.030518012391	589.746739198008	680.796712140913	110.701817688241	625.409109887778	876.663490154337	48.602384439761	608.569328653475	547.510297863156	38.086704319813	396.573362447856	627.708587637203	35.151759493590	321.507311220855	709.455421192994	95.499812028415	354.548986158824	839.302677536719	41.463206251592	336.791147073930	791.822836299866	1122.462086219649	105.509005781869	1017.987913167342	991.117163681996	82.385747146024	597.056979540047	1105.371719626952	689.411133594905	578.222789624621	844.529440833194	695.828465007518	
